# xmcd
#
# Track frame offsets: 
#        187
#        14102
#        28342
#        41032
#        52505
#        65362
#        79425
#        94235
#        110147
#        125452
#
# Disc length: 1869 seconds
#
# Revision: 4
# Processed by: cddbd v1.5.1PL0 Copyright (c) Steve Scherf et al.
# Submitted via: ExactAudioCopy v0.95a5
#
DISCID=8b074b0a
DTITLE=John Schneider - Take The Long Way Home
DYEAR=1986
DGENRE=Crossover
TTITLE0=At The Sound Of The Tone
TTITLE1=The Broken Promise Land
TTITLE2=She's Ready For Someone To Love Her
TTITLE3=Sounds Like Something I Would Say
TTITLE4=Better Class Of Losers
TTITLE5=Gettin' Even
TTITLE6=The Auction
TTITLE7=This Time
TTITLE8=Just When
TTITLE9=Take The Long Way Home
EXTD=more info - MillenniumMusicProjectFormat - SYNTAX=SongTitle{Subtit
EXTD=le}[miscInfo](Lyricist;Composer;Date,Artist,Location,State,Countr
EXTD=y)
EXTT0=
EXTT1=
EXTT2=
EXTT3=
EXTT4=
EXTT5=
EXTT6=
EXTT7=
EXTT8=
EXTT9=
PLAYORDER=
